<svg width="12" height="12" viewBox="0 0 12 12" fill="none" xmlns="http://www.w3.org/2000/svg">
<g clip-path="url(#clip0_101_146)">
<path d="M7.86423 1.94219C8.58123 1.22219 9.63023 1.20719 10.2107 1.79019C10.7927 2.37419 10.7772 3.43019 10.0592 4.15019L8.84773 5.36669C8.77951 5.43751 8.74184 5.53229 8.74283 5.63062C8.74383 5.72895 8.7834 5.82295 8.85303 5.89238C8.92266 5.96181 9.01677 6.00112 9.1151 6.00183C9.21343 6.00254 9.3081 5.96461 9.37873 5.89619L10.5907 4.67969C11.5462 3.72019 11.6662 2.18869 10.7422 1.26069C9.81723 0.332191 8.28873 0.453191 7.33223 1.41269L4.90923 3.84619C3.95373 4.80569 3.83373 6.33719 4.75773 7.26469C4.79224 7.30058 4.83355 7.32924 4.87925 7.34899C4.92496 7.36874 4.97414 7.3792 5.02392 7.37974C5.07371 7.38029 5.1231 7.37092 5.16923 7.35217C5.21535 7.33342 5.25728 7.30568 5.29257 7.27056C5.32786 7.23543 5.3558 7.19363 5.37477 7.1476C5.39373 7.10156 5.40334 7.05221 5.40303 7.00242C5.40272 6.95263 5.39249 6.90341 5.37295 6.85761C5.35342 6.81182 5.32496 6.77037 5.28923 6.73569C4.70723 6.15169 4.72323 5.09569 5.44073 4.37569L7.86423 1.94219Z" fill="#247AFB"/>
<path d="M7.24273 4.73481C7.17245 4.66433 7.07704 4.62465 6.97751 4.62451C6.87797 4.62437 6.78246 4.66378 6.71198 4.73406C6.6415 4.80434 6.60182 4.89974 6.60168 4.99928C6.60154 5.09881 6.64095 5.19433 6.71123 5.26481C7.29323 5.84881 7.27773 6.90431 6.55973 7.62481L4.13623 10.0578C3.41873 10.7778 2.36973 10.7928 1.78923 10.2098C1.20723 9.62581 1.22323 8.56981 1.94073 7.84981L3.15273 6.63331C3.1875 6.59841 3.21505 6.55701 3.23382 6.51146C3.25258 6.46591 3.26219 6.41711 3.2621 6.36785C3.26201 6.31859 3.25221 6.26983 3.23327 6.22435C3.21434 6.17888 3.18663 6.13758 3.15173 6.10281C3.11683 6.06804 3.07543 6.04049 3.02988 6.02172C2.98433 6.00296 2.93553 5.99335 2.88627 5.99344C2.83701 5.99353 2.78825 6.00333 2.74277 6.02226C2.6973 6.0412 2.656 6.06891 2.62123 6.10381L1.40923 7.32031C0.45373 8.28031 0.33373 9.81131 1.25773 10.7393C2.18273 11.6683 3.71123 11.5468 4.66773 10.5873L7.09123 8.15381C8.04673 7.19481 8.16673 5.66231 7.24273 4.73481Z" fill="#247AFB"/>
</g>
<defs>
<clipPath id="clip0_101_146">
<rect width="12" height="12" fill="white"/>
</clipPath>
</defs>
</svg>
