<svg width="16" height="16" viewBox="0 0 16 16" fill="none" xmlns="http://www.w3.org/2000/svg">
<rect width="16" height="16" rx="4" fill="#565656"/>
<path d="M11.8639 5.80908L6.94224 10.8607C6.89937 10.9049 6.84843 10.9399 6.79235 10.9638C6.73627 10.9877 6.67614 11 6.61541 11C6.55468 11 6.49455 10.9877 6.43847 10.9638C6.38239 10.9399 6.33145 10.9049 6.28858 10.8607L4.13538 8.65062C4.09246 8.60657 4.05841 8.55427 4.03518 8.49671C4.01196 8.43915 4 8.37746 4 8.31516C4 8.25286 4.01196 8.19117 4.03518 8.13361C4.05841 8.07605 4.09246 8.02375 4.13538 7.9797C4.1783 7.93565 4.22925 7.9007 4.28532 7.87686C4.3414 7.85302 4.4015 7.84075 4.4622 7.84075C4.5229 7.84075 4.583 7.85302 4.63908 7.87686C4.69516 7.9007 4.74611 7.93565 4.78903 7.9797L6.61579 9.85472L11.211 5.13895C11.2977 5.04998 11.4152 5 11.5378 5C11.6604 5 11.7779 5.04998 11.8646 5.13895C11.9513 5.22792 12 5.34859 12 5.47441C12 5.60023 11.9513 5.7209 11.8646 5.80987L11.8639 5.80908Z" fill="white"/>
</svg>
