<svg width="16" height="16" viewBox="0 0 16 16" fill="none" xmlns="http://www.w3.org/2000/svg">
<rect width="16" height="16" rx="4" fill="#565656"/>
<path d="M11.8468 5.94393L6.31002 11.8375C6.26179 11.889 6.20449 11.9299 6.14139 11.9578C6.0783 11.9856 6.01065 12 5.94234 12C5.87402 12 5.80637 11.9856 5.74328 11.9578C5.68018 11.9299 5.62288 11.889 5.57466 11.8375L3.1523 9.25906C3.10401 9.20766 3.06571 9.14665 3.03958 9.0795C3.01345 9.01234 3 8.94037 3 8.86769C3 8.795 3.01345 8.72303 3.03958 8.65588C3.06571 8.58873 3.10401 8.52771 3.1523 8.47632C3.20058 8.42492 3.2579 8.38415 3.32099 8.35634C3.38408 8.32852 3.45169 8.31421 3.51998 8.31421C3.58826 8.31421 3.65588 8.32852 3.71896 8.35634C3.78205 8.38415 3.83937 8.42492 3.88766 8.47632L5.94277 10.6638L11.1123 5.16211C11.2099 5.05831 11.3421 5 11.48 5C11.6179 5 11.7502 5.05831 11.8477 5.16211C11.9452 5.26591 12 5.40669 12 5.55348C12 5.70027 11.9452 5.84105 11.8477 5.94485L11.8468 5.94393Z" fill="white"/>
</svg>
