<svg width="82" height="82" viewBox="0 0 82 82" fill="none" xmlns="http://www.w3.org/2000/svg">
<g filter="url(#filter0_d_723_301)">
<rect x="6" y="2" width="70" height="70" rx="16" fill="white"/>
</g>
<path d="M35.8782 24.7774C35.8782 27.6742 33.6869 29.9549 31.0648 29.9549C28.4426 29.9549 26.2514 27.6742 26.2514 24.7774C26.2514 21.8806 28.4426 19.6 31.0648 19.6C33.6869 19.6 35.8782 21.8806 35.8782 24.7774Z" fill="#FF6362" stroke="#FF6362" stroke-width="1.2"/>
<path d="M54.8938 24.7774C54.8938 27.6742 52.7026 29.9549 50.0804 29.9549C47.4582 29.9549 45.267 27.6742 45.267 24.7774C45.267 21.8806 47.4582 19.6 50.0804 19.6C52.7026 19.6 54.8938 21.8806 54.8938 24.7774Z" fill="#FF6362" stroke="#FF6362" stroke-width="1.2"/>
<mask id="path-4-inside-1_723_301" fill="white">
<path fill-rule="evenodd" clip-rule="evenodd" d="M37.1646 53.3076L33.6965 49.6062L30.2412 53.2938C28.1272 55.5501 24.6996 55.5501 22.5855 53.2938C20.4715 51.0376 20.4715 47.3795 22.5855 45.1233L29.8641 37.3553C31.6479 35.4515 34.3668 35.1541 36.4427 36.4629C36.8353 36.7078 37.2052 37.0098 37.5417 37.369L40.9794 41.0378L44.4592 37.324C46.2896 35.3705 49.1046 35.1084 51.1992 36.5376C51.5316 36.7621 51.8461 37.029 52.1359 37.3383L59.4145 45.1063C61.5285 47.3625 61.5285 51.0206 59.4145 53.2768C57.3004 55.5331 53.8728 55.5331 51.7588 53.2768L48.2909 49.5757L45.1258 52.9537C45.0294 53.075 44.9276 53.1931 44.8203 53.3076C42.7062 55.5638 39.2787 55.5638 37.1646 53.3076Z"/>
</mask>
<path fill-rule="evenodd" clip-rule="evenodd" d="M37.1646 53.3076L33.6965 49.6062L30.2412 53.2938C28.1272 55.5501 24.6996 55.5501 22.5855 53.2938C20.4715 51.0376 20.4715 47.3795 22.5855 45.1233L29.8641 37.3553C31.6479 35.4515 34.3668 35.1541 36.4427 36.4629C36.8353 36.7078 37.2052 37.0098 37.5417 37.369L40.9794 41.0378L44.4592 37.324C46.2896 35.3705 49.1046 35.1084 51.1992 36.5376C51.5316 36.7621 51.8461 37.029 52.1359 37.3383L59.4145 45.1063C61.5285 47.3625 61.5285 51.0206 59.4145 53.2768C57.3004 55.5331 53.8728 55.5331 51.7588 53.2768L48.2909 49.5757L45.1258 52.9537C45.0294 53.075 44.9276 53.1931 44.8203 53.3076C42.7062 55.5638 39.2787 55.5638 37.1646 53.3076Z" fill="#FF6362"/>
<path d="M33.6965 49.6062L34.5721 48.7857L33.6965 47.8512L32.8208 48.7857L33.6965 49.6062ZM37.1646 53.3076L38.0403 52.4871L37.1646 53.3076ZM30.2412 53.2938L29.3656 52.4733L30.2412 53.2938ZM22.5855 53.2938L23.4612 52.4733H23.4612L22.5855 53.2938ZM22.5855 45.1233L23.4612 45.9438L22.5855 45.1233ZM29.8641 37.3553L30.7398 38.1758L30.7398 38.1758L29.8641 37.3553ZM36.4427 36.4629L35.8027 37.4781L35.8077 37.4812L36.4427 36.4629ZM37.5417 37.369L38.4174 36.5485V36.5485L37.5417 37.369ZM40.9794 41.0378L40.1037 41.8583L40.9794 42.7929L41.8551 41.8583L40.9794 41.0378ZM44.4592 37.324L43.5835 36.5035V36.5035L44.4592 37.324ZM51.1992 36.5376L50.5229 37.5289L50.5276 37.532L51.1992 36.5376ZM52.1359 37.3383L51.2602 38.1588V38.1588L52.1359 37.3383ZM59.4145 45.1063L60.2901 44.2858V44.2858L59.4145 45.1063ZM59.4145 53.2768L58.5388 52.4563V52.4563L59.4145 53.2768ZM51.7588 53.2768L52.6344 52.4563H52.6344L51.7588 53.2768ZM48.2909 49.5757L49.1665 48.7552L48.2909 47.8207L47.4152 48.7552L48.2909 49.5757ZM45.1258 52.9537L44.2501 52.1332L44.2166 52.1689L44.1861 52.2073L45.1258 52.9537ZM44.8203 53.3076L45.696 54.1281H45.696L44.8203 53.3076ZM32.8208 50.4267L36.2889 54.1281L38.0403 52.4871L34.5721 48.7857L32.8208 50.4267ZM31.1169 54.1143L34.5721 50.4267L32.8208 48.7857L29.3656 52.4733L31.1169 54.1143ZM21.7099 54.1143C24.2981 56.8766 28.5287 56.8766 31.1169 54.1143L29.3656 52.4733C27.7256 54.2236 25.1011 54.2236 23.4612 52.4733L21.7099 54.1143ZM21.7099 44.3028C19.1634 47.0206 19.1634 51.3966 21.7099 54.1143L23.4612 52.4733C21.7796 50.6786 21.7796 47.7385 23.4612 45.9438L21.7099 44.3028ZM28.9884 36.5348L21.7099 44.3028L23.4612 45.9438L30.7398 38.1758L28.9884 36.5348ZM37.0827 35.4479C34.5209 33.8327 31.1661 34.2107 28.9884 36.5348L30.7398 38.1758C32.1296 36.6924 34.2126 36.4755 35.8027 37.478L37.0827 35.4479ZM38.4174 36.5485C38.0101 36.1138 37.5595 35.7452 37.0777 35.4447L35.8077 37.4812C36.1111 37.6704 36.4002 37.9058 36.6661 38.1895L38.4174 36.5485ZM41.8551 40.2174L38.4174 36.5485L36.6661 38.1895L40.1037 41.8583L41.8551 40.2174ZM43.5835 36.5035L40.1037 40.2174L41.8551 41.8583L45.3349 38.1445L43.5835 36.5035ZM51.8756 35.5464C49.2927 33.7841 45.8188 34.1179 43.5835 36.5035L45.3349 38.1445C46.7603 36.6232 48.9165 36.4328 50.5229 37.5288L51.8756 35.5464ZM50.5276 37.532C50.7851 37.706 51.0313 37.9144 51.2602 38.1588L53.0116 36.5178C52.6609 36.1436 52.2781 35.8182 51.8709 35.5432L50.5276 37.532ZM51.2602 38.1588L58.5388 45.9268L60.2901 44.2858L53.0116 36.5178L51.2602 38.1588ZM58.5388 45.9268C60.2204 47.7215 60.2204 50.6616 58.5388 52.4563L60.2901 54.0973C62.8366 51.3796 62.8366 47.0036 60.2901 44.2858L58.5388 45.9268ZM58.5388 52.4563C56.8988 54.2066 54.2744 54.2066 52.6344 52.4563L50.8831 54.0973C53.4713 56.8596 57.7019 56.8596 60.2901 54.0973L58.5388 52.4563ZM52.6344 52.4563L49.1665 48.7552L47.4152 50.3962L50.8831 54.0973L52.6344 52.4563ZM46.0014 53.7742L49.1665 50.3962L47.4152 48.7552L44.2501 52.1332L46.0014 53.7742ZM45.696 54.1281C45.8257 53.9896 45.9488 53.8468 46.0654 53.7001L44.1861 52.2073C44.1099 52.3032 44.0294 52.3966 43.9446 52.4871L45.696 54.1281ZM36.2889 54.1281C38.8771 56.8903 43.1078 56.8903 45.696 54.1281L43.9446 52.4871C42.3047 54.2373 39.6802 54.2373 38.0403 52.4871L36.2889 54.1281Z" fill="#FF6362" mask="url(#path-4-inside-1_723_301)"/>
<defs>
<filter id="filter0_d_723_301" x="0" y="0" width="82" height="82" filterUnits="userSpaceOnUse" color-interpolation-filters="sRGB">
<feFlood flood-opacity="0" result="BackgroundImageFix"/>
<feColorMatrix in="SourceAlpha" type="matrix" values="0 0 0 0 0 0 0 0 0 0 0 0 0 0 0 0 0 0 127 0" result="hardAlpha"/>
<feOffset dy="4"/>
<feGaussianBlur stdDeviation="3"/>
<feComposite in2="hardAlpha" operator="out"/>
<feColorMatrix type="matrix" values="0 0 0 0 0 0 0 0 0 0 0 0 0 0 0 0 0 0 0.1 0"/>
<feBlend mode="normal" in2="BackgroundImageFix" result="effect1_dropShadow_723_301"/>
<feBlend mode="normal" in="SourceGraphic" in2="effect1_dropShadow_723_301" result="shape"/>
</filter>
</defs>
</svg>
